<svg xmlns="http://www.w3.org/2000/svg" version="1.1" viewBox="-0.13 0 570.37 569">
    <path d="" stroke="none" fill="#64ffda" fill-rule="evenodd"/>
    <path d="M 0.520 2.250 C 4.491 15.903, 7.167 24.552, 8.024 26.500 C 8.508 27.600, 11.190 35.925, 13.983 45 C 26.316 85.061, 28.067 90.612, 28.964 92.500 C 29.487 93.600, 31.095 98.550, 32.536 103.500 C 33.978 108.450, 37.110 118.575, 39.496 126 C 44.165 140.529, 54.176 171.983, 59.546 189 C 68.035 215.896, 75.553 239.658, 79.481 252 C 81.843 259.425, 86.124 272.925, 88.992 282 C 91.861 291.075, 96.368 305.250, 99.007 313.500 C 101.647 321.750, 105.015 332.550, 106.493 337.500 C 107.971 342.450, 109.592 347.400, 110.096 348.500 C 110.599 349.600, 112.998 357.025, 115.426 365 C 125.315 397.485, 128.153 406.594, 128.977 408.500 C 129.977 410.814, 131.565 415.743, 140.574 444.500 C 144.193 456.050, 148.879 470.900, 150.988 477.500 C 153.097 484.100, 157.366 497.600, 160.475 507.500 C 163.584 517.400, 168.563 533.150, 171.541 542.500 C 174.518 551.850, 177.508 561.638, 178.184 564.250 C 178.861 566.862, 179.925 569, 180.549 569 C 181.173 569, 182.225 567.087, 182.888 564.750 C 183.550 562.413, 184.524 559.600, 185.052 558.500 C 185.580 557.400, 187.999 549.975, 190.427 542 C 194.718 527.910, 202.315 503.765, 207.574 487.500 C 208.997 483.100, 212.648 471.625, 215.687 462 C 218.727 452.375, 223.390 437.750, 226.050 429.500 C 228.709 421.250, 233.427 406.400, 236.533 396.500 C 239.640 386.600, 243.928 373.100, 246.063 366.500 C 256.055 335.610, 271.200 287.817, 274.583 276.500 C 275.405 273.750, 276.511 270.600, 277.041 269.500 C 277.571 268.400, 279.566 262.150, 281.475 255.611 C 285.010 243.499, 286 241.105, 286 244.667 C 286 245.767, 286.337 247.004, 286.750 247.417 C 287.162 247.829, 287.517 248.467, 287.538 248.833 C 287.635 250.513, 289.394 256.536, 293.429 269 C 295.832 276.425, 300.058 289.700, 302.819 298.500 C 305.581 307.300, 310.332 322.375, 313.379 332 C 316.425 341.625, 319.886 352.650, 321.071 356.500 C 322.255 360.350, 324.259 366.650, 325.523 370.500 C 328.107 378.371, 335.872 402.903, 344.989 432 C 348.349 442.725, 352.238 454.875, 353.630 459 C 355.023 463.125, 356.603 468.075, 357.141 470 C 357.679 471.925, 360.761 481.825, 363.989 492 C 367.218 502.175, 372.405 518.600, 375.517 528.500 C 386.637 563.878, 388.415 569.028, 389.388 568.704 C 389.931 568.523, 390.918 566.603, 391.582 564.438 C 394.666 554.371, 411.679 500.550, 419.061 477.500 C 424.837 459.467, 435.096 426.819, 437.600 418.500 C 438.594 415.200, 439.987 411.375, 440.697 410 C 441.407 408.625, 441.990 406.734, 441.994 405.797 C 441.997 404.860, 442.417 403.060, 442.928 401.797 C 443.438 400.534, 446.403 391.400, 449.516 381.500 C 462.760 339.393, 466.387 327.957, 469.499 318.500 C 471.309 313, 474.225 303.550, 475.981 297.500 C 477.736 291.450, 479.765 285.150, 480.490 283.500 C 481.216 281.850, 482.780 277.125, 483.968 273 C 485.156 268.875, 488.079 259.425, 490.465 252 C 500.552 220.607, 507.012 200.121, 508.593 194.512 C 509.521 191.219, 510.663 187.844, 511.130 187.012 C 511.598 186.180, 513.315 180.896, 514.946 175.268 C 516.577 169.640, 519.778 159.290, 522.058 152.268 C 531.334 123.698, 535.063 112.019, 537.946 102.500 C 539.613 97, 541.861 89.800, 542.943 86.500 C 544.026 83.200, 547.463 72.400, 550.583 62.500 C 553.703 52.600, 558.624 37.075, 561.520 28 C 564.415 18.925, 567.329 9.475, 567.996 7 C 568.662 4.525, 569.665 1.938, 570.226 1.250 C 571.041 0.251, 521.793 -0, 324.601 -0 L 77.957 -0 78.228 19.250 L 78.500 38.500 300.250 38.752 L 522 39.004 522 40.529 C 522 41.368, 519.789 48.904, 517.086 57.277 C 509.881 79.599, 500.261 109.976, 499.122 114 C 498.577 115.925, 497.228 119.975, 496.123 123 C 495.019 126.025, 491.330 137.500, 487.925 148.500 C 484.521 159.500, 479.590 175.250, 476.967 183.500 C 474.345 191.750, 469.625 206.600, 466.478 216.500 C 463.332 226.400, 458.589 241.250, 455.939 249.500 C 450.851 265.344, 443.785 287.743, 434.490 317.500 C 431.398 327.400, 427.360 340, 425.518 345.500 C 423.675 351, 419.417 364.275, 416.054 375 C 412.692 385.725, 407.501 402.150, 404.519 411.500 C 401.537 420.850, 398.346 431.200, 397.428 434.500 C 396.510 437.800, 395.432 440.950, 395.033 441.500 C 394.634 442.050, 393.253 446.217, 391.964 450.760 C 390.675 455.304, 389.296 458.679, 388.898 458.260 C 388.501 457.842, 386.980 453.450, 385.519 448.500 C 384.057 443.550, 380.909 433.425, 378.522 426 C 374.047 412.078, 366.564 388.426, 357.800 360.500 C 355.039 351.700, 350.839 338.425, 348.467 331 C 346.096 323.575, 341.617 309.400, 338.515 299.500 C 335.413 289.600, 330.922 275.425, 328.535 268 C 326.149 260.575, 323.231 251.350, 322.050 247.500 C 319.568 239.402, 312.656 217.436, 306.474 198 C 294.886 161.564, 290.633 148.079, 289.286 143.500 C 288.477 140.750, 287.332 137.214, 286.742 135.643 L 285.668 132.785 284.437 135.143 C 283.759 136.439, 281.124 144.475, 278.581 153 C 276.037 161.525, 273.544 169.236, 273.041 170.136 C 272.537 171.037, 270.711 176.662, 268.982 182.636 C 267.253 188.611, 264.347 198, 262.523 203.500 C 260.699 209, 256.638 221.600, 253.499 231.500 C 241.555 269.171, 230.025 305.395, 221.987 330.500 C 219.346 338.750, 214.638 353.600, 211.525 363.500 C 208.411 373.400, 204.326 386.225, 202.445 392 C 196.097 411.495, 188.178 436.438, 184.984 447 C 183.238 452.775, 181.512 457.818, 181.149 458.206 C 180.786 458.594, 178.321 452.069, 175.673 443.706 C 163.623 405.653, 159.869 393.855, 156.997 385 C 155.302 379.775, 152.363 370.325, 150.466 364 C 148.568 357.675, 145.924 349.350, 144.590 345.500 C 142.331 338.982, 136.912 322.043, 123.317 279 C 120.277 269.375, 115.626 254.750, 112.982 246.500 C 110.338 238.250, 105.612 223.400, 102.479 213.500 C 99.346 203.600, 94.837 189.425, 92.458 182 C 90.079 174.575, 85.579 160.400, 82.458 150.500 C 79.337 140.600, 74.837 126.425, 72.458 119 C 70.080 111.575, 65.582 97.400, 62.463 87.500 C 59.345 77.600, 55.301 65, 53.477 59.500 C 51.653 54, 48.732 44.550, 46.985 38.500 C 45.238 32.450, 43.290 26.868, 42.655 26.096 C 42.020 25.324, 41.614 24.424, 41.754 24.096 C 41.893 23.768, 40.357 18.213, 38.340 11.750 L 34.673 0 17.269 0 L -0.135 0 0.520 2.250"
          stroke="none" fill="#64ffda" fill-rule="evenodd"/>
</svg>